<svg width="20" height="20" viewBox="0 0 20 20" fill="none" xmlns="http://www.w3.org/2000/svg">
    <path d="M3.33329 10C3.33329 9.54171 3.49649 9.14935 3.82288 8.82296C4.14927 8.49657 4.54163 8.33337 4.99996 8.33337C5.45829 8.33337 5.85065 8.49657 6.17704 8.82296C6.50343 9.14935 6.66663 9.54171 6.66663 10C6.66663 10.4584 6.50343 10.8507 6.17704 11.1771C5.85065 11.5035 5.45829 11.6667 4.99996 11.6667C4.54163 11.6667 4.14927 11.5035 3.82288 11.1771C3.49649 10.8507 3.33329 10.4584 3.33329 10ZM8.33329 10C8.33329 9.54171 8.49649 9.14935 8.82288 8.82296C9.14927 8.49657 9.54163 8.33337 9.99996 8.33337C10.4583 8.33337 10.8507 8.49657 11.177 8.82296C11.5034 9.14935 11.6666 9.54171 11.6666 10C11.6666 10.4584 11.5034 10.8507 11.177 11.1771C10.8507 11.5035 10.4583 11.6667 9.99996 11.6667C9.54163 11.6667 9.14927 11.5035 8.82288 11.1771C8.49649 10.8507 8.33329 10.4584 8.33329 10ZM13.3333 10C13.3333 9.54171 13.4965 9.14935 13.8229 8.82296C14.1493 8.49657 14.5416 8.33337 15 8.33337C15.4583 8.33337 15.8507 8.49657 16.177 8.82296C16.5034 9.14935 16.6666 9.54171 16.6666 10C16.6666 10.4584 16.5034 10.8507 16.177 11.1771C15.8507 11.5035 15.4583 11.6667 15 11.6667C14.5416 11.6667 14.1493 11.5035 13.8229 11.1771C13.4965 10.8507 13.3333 10.4584 13.3333 10Z"
          fill="currentColor"/>
</svg>
