<svg width="24" height="24" viewBox="0 0 24 24" fill="none" xmlns="http://www.w3.org/2000/svg">
<path d="M11 11H13V4C13 3.71667 12.9042 3.47917 12.7125 3.2875C12.5209 3.09583 12.2834 3 12 3C11.7167 3 11.4792 3.09583 11.2875 3.2875C11.0959 3.47917 11 3.71667 11 4V11ZM5.00004 15H19V13H5.00004V15ZM3.55004 21H6.00004V19C6.00004 18.7167 6.09588 18.4792 6.28754 18.2875C6.47921 18.0958 6.71671 18 7.00004 18C7.28338 18 7.52088 18.0958 7.71254 18.2875C7.90421 18.4792 8.00004 18.7167 8.00004 19V21H11V19C11 18.7167 11.0959 18.4792 11.2875 18.2875C11.4792 18.0958 11.7167 18 12 18C12.2834 18 12.5209 18.0958 12.7125 18.2875C12.9042 18.4792 13 18.7167 13 19V21H16V19C16 18.7167 16.0959 18.4792 16.2875 18.2875C16.4792 18.0958 16.7167 18 17 18C17.2834 18 17.5209 18.0958 17.7125 18.2875C17.9042 18.4792 18 18.7167 18 19V21H20.45L19.45 17H4.55004L3.55004 21ZM20.45 23H3.55004C2.90004 23 2.37504 22.7417 1.97504 22.225C1.57504 21.7083 1.45838 21.1333 1.62504 20.5L3.00004 15V13C3.00004 12.45 3.19588 11.9792 3.58754 11.5875C3.97921 11.1958 4.45004 11 5.00004 11H9.00004V4C9.00004 3.16667 9.29171 2.45833 9.87504 1.875C10.4584 1.29167 11.1667 1 12 1C12.8334 1 13.5417 1.29167 14.125 1.875C14.7084 2.45833 15 3.16667 15 4V11H19C19.55 11 20.0209 11.1958 20.4125 11.5875C20.8042 11.9792 21 12.45 21 13V15L22.375 20.5C22.5917 21.1333 22.4959 21.7083 22.0875 22.225C21.6792 22.7417 21.1334 23 20.45 23Z" fill="currentColor"/>
</svg>
