<svg width="24" height="24" viewBox="0 0 24 24" fill="none" xmlns="http://www.w3.org/2000/svg">
<path d="M5 21C4.45 21 3.97917 20.8042 3.5875 20.4125C3.19583 20.0208 3 19.55 3 19V5C3 4.45 3.19583 3.97917 3.5875 3.5875C3.97917 3.19583 4.45 3 5 3H19C19.55 3 20.0208 3.19583 20.4125 3.5875C20.8042 3.97917 21 4.45 21 5V19C21 19.55 20.8042 20.0208 20.4125 20.4125C20.0208 20.8042 19.55 21 19 21H5ZM5 19H19V16H16C15.5 16.6333 14.9042 17.125 14.2125 17.475C13.5208 17.825 12.7833 18 12 18C11.2167 18 10.4792 17.825 9.7875 17.475C9.09583 17.125 8.5 16.6333 8 16H5V19ZM12 16C12.6333 16 13.2083 15.8167 13.725 15.45C14.2417 15.0833 14.6 14.6 14.8 14H19V5H5V14H9.2C9.4 14.6 9.75833 15.0833 10.275 15.45C10.7917 15.8167 11.3667 16 12 16ZM12 14L8 10L9.4 8.55L11 10.15V6H13V10.15L14.6 8.55L16 10L12 14Z" fill="currentColor"/>
</svg>
